<?xml version="1.0" encoding="UTF-8"?>
<svg version="1.1" xmlns="http://www.w3.org/2000/svg" width="3904" height="884">
<path d="M0 0 C54.45 0 108.9 0 165 0 C188.29180569 82.6859102 188.29180569 82.6859102 196.58955765 112.23790359 C197.34044929 114.91203512 198.09145812 117.58613371 198.84249878 120.26022339 C210.23885351 160.83719691 221.62116302 201.41811105 233 242 C237.54265607 227.2361031 241.93222794 212.43794245 246.1472168 197.57739258 C246.72284429 195.55403373 247.29866631 193.53073021 247.87466431 191.50747681 C249.09909583 187.20513193 250.32226449 182.90243094 251.5444088 178.59943581 C253.48011775 171.78440289 255.41923478 164.97034245 257.35884094 158.15641785 C262.17016559 141.25208089 266.97718315 124.34651962 271.78320312 107.44067383 C275.53188043 94.25435302 279.28178796 81.06838472 283.03539401 67.88346595 C284.96091363 61.11936214 286.88391766 54.35455002 288.80497205 47.58917677 C290.00091938 43.37951211 291.19912464 39.17049256 292.39793777 34.96164322 C292.95032348 33.02057843 293.50179037 31.07925187 294.05223656 29.13763618 C294.80771469 26.47330258 295.56657897 23.80995469 296.32621765 21.14680481 C296.64592727 20.01462964 296.64592727 20.01462964 296.97209567 18.85958225 C298.79477007 12.49168374 300.89854973 6.30435082 303 0 C357.45 0 411.9 0 468 0 C468 130.68 468 261.36 468 396 C433.35 396 398.7 396 363 396 C362.505 267.3 362.505 267.3 362 136 C345.17280706 190.28368738 345.17280706 190.28368738 328.39454269 244.58243942 C327.13258702 248.67428545 325.87009926 252.76596731 324.60766602 256.85766602 C323.01796527 262.01016833 321.42830099 267.16268188 319.83885193 272.31526184 C315.94084875 284.95149405 312.04111112 297.58719026 308.140625 310.22265625 C307.57074341 312.06880653 307.00086324 313.91495724 306.4309845 315.7611084 C303.98203476 323.69457333 301.53304911 331.62802717 299.08391666 339.5614357 C298.3307547 342.00126057 297.57770205 344.44111917 296.82466125 346.88098145 C295.87096317 349.97089696 294.91672966 353.06064633 293.96208191 356.15026855 C291.81198871 363.11109356 289.66951453 370.07405846 287.54736328 377.04345703 C287.17305679 378.26988419 286.79875031 379.49631134 286.4131012 380.75990295 C285.72252316 383.02457364 285.03448689 385.29002159 284.34947205 387.55638123 C284.05117996 388.53365677 283.75288788 389.51093231 283.44555664 390.51782227 C283.18843399 391.36594986 282.93131134 392.21407745 282.66639709 393.08790588 C282 395 282 395 281 396 C279.6465941 396.09531163 278.28826016 396.1218872 276.9315033 396.12025452 C275.61683327 396.12231651 275.61683327 396.12231651 274.27560425 396.12442017 C273.30672272 396.12082489 272.33784119 396.11722961 271.33959961 396.11352539 C270.32508224 396.11367142 269.31056488 396.11381744 268.26530457 396.1139679 C264.89429627 396.11326829 261.52334246 396.10547368 258.15234375 396.09765625 C255.82206757 396.09579224 253.491791 396.09436826 251.16151428 396.09336853 C245.01462735 396.08954202 238.86776387 396.0797106 232.72088623 396.06866455 C226.45390134 396.05845329 220.18691268 396.05387152 213.91992188 396.04882812 C201.61327092 396.03808845 189.30663741 396.02101044 177 396 C175.11320984 391.0757387 173.38128062 386.17614968 171.88476562 381.11621094 C171.69299995 380.47069778 171.50123428 379.82518463 171.30365753 379.16011047 C170.66839211 377.01901581 170.03729262 374.87671769 169.40625 372.734375 C168.94724973 371.18379065 168.48801455 369.63327583 168.02856445 368.08282471 C166.77824995 363.86054101 165.53173624 359.63714374 164.28598022 355.41351318 C163.22544132 351.81958136 162.16267494 348.22630971 161.09996796 344.63301849 C155.12667435 324.4340741 149.18065508 304.22712632 143.25 284.015625 C142.96834488 283.05577446 142.68668976 282.09592392 142.39649963 281.106987 C139.42575969 270.98211601 136.45760745 260.85649439 133.49414062 250.72949219 C122.08874034 211.79170088 110.52679906 172.90294681 99 134 C98.67 220.46 98.34 306.92 98 396 C65.66 396 33.32 396 0 396 C0 265.32 0 134.64 0 0 Z " fill="#A9143E" transform="translate(1816,247)"/>
<path d="M0 0 C59.02875 -0.0928125 59.02875 -0.0928125 119.25 -0.1875 C131.64981445 -0.21481201 144.04962891 -0.24212402 156.82519531 -0.27026367 C172.03271484 -0.28381348 172.03271484 -0.28381348 179.16473389 -0.28633118 C184.11806313 -0.28911241 189.07129473 -0.30029997 194.02459717 -0.31672668 C200.36400598 -0.33746818 206.703275 -0.34344335 213.0427146 -0.33921683 C215.35605196 -0.34009922 217.66939476 -0.34595009 219.98270273 -0.35764539 C256.4073043 -0.53308069 295.06757139 6.52433475 322 33 C329.96540268 41.20074964 336.45569892 49.99533985 342 60 C342.54269531 60.96292969 343.08539062 61.92585938 343.64453125 62.91796875 C357.29209459 88.52010657 358.33128816 118.31059029 350.10083008 145.7956543 C343.89711741 165.17051878 333.09769591 181.41950629 319 196 C317.93265625 197.10601562 317.93265625 197.10601562 316.84375 198.234375 C303.89933514 210.73548798 286.47988646 219.82663489 269 224 C270.72929565 229.97788212 273.52333465 235.37941619 276.27734375 240.93359375 C276.80332657 242.00255386 277.32930939 243.07151398 277.87123108 244.17286682 C279.55639833 247.59619361 281.24666981 251.01696718 282.9375 254.4375 C285.13599265 258.89360715 287.33228208 263.35079559 289.52734375 267.80859375 C290.07114182 268.91247437 290.61493988 270.01635498 291.17521667 271.15368652 C295.69269933 280.33957024 300.12032439 289.56662188 304.52319336 298.80786133 C307.60671525 305.27982171 310.73264259 311.73089856 313.86651611 318.17858887 C315.56231319 321.66777971 317.25563702 325.15817098 318.94921875 328.6484375 C319.29041748 329.35150024 319.63161621 330.05456299 319.9831543 330.77893066 C323.94059493 338.9353037 327.88231341 347.09924362 331.82006836 355.26513672 C334.53341038 360.89185404 337.24925913 366.51727989 339.97525024 372.13787842 C341.29205942 374.85321245 342.60746889 377.56922347 343.92279053 380.28527832 C344.55413224 381.58794416 345.18616411 382.89027574 345.81890869 384.19226074 C346.69091152 385.98670276 347.56036745 387.78238177 348.4296875 389.578125 C348.92710449 390.60325195 349.42452148 391.62837891 349.93701172 392.68457031 C351 395 351 395 351 396 C307.11 396 263.22 396 218 396 C212.72 382.14 207.44 368.28 202 354 C196.10415768 338.85331633 196.10415768 338.85331633 190.1875 323.71484375 C185.66257052 312.15289477 181.17359789 300.57706001 176.6875 289 C176.29290588 287.98181183 175.89831177 286.96362366 175.49176025 285.9145813 C173.88474395 281.76787681 172.27783657 277.62113015 170.6711731 273.47428894 C167.36470703 264.94024704 164.05613613 256.40702267 160.74642944 247.87423706 C158.72166015 242.65403438 156.69756365 237.43357353 154.67529297 232.21240234 C149.88207799 219.83890742 149.88207799 219.83890742 145.05653381 207.47799683 C143.90202649 204.53172876 142.7507923 201.58418732 141.599823 198.63653564 C140.83653854 196.6864162 140.06791056 194.73846225 139.29907227 192.79052734 C138.85619873 191.65566895 138.4133252 190.52081055 137.95703125 189.3515625 C137.57522705 188.38041504 137.19342285 187.40926758 136.80004883 186.40869141 C136 184 136 184 136 181 C136.93457031 181.08378906 137.86914062 181.16757812 138.83203125 181.25390625 C167.38889625 183.46783396 197.26143542 180.57194994 219.921875 161.546875 C228.16840139 153.78830876 233.01218233 145.38689303 233.375 134 C233.24541748 122.42828079 228.02523075 113.12109528 220 105 C192.56322161 80.9822663 150.81991228 88.5562697 118 88 C118 189.64 118 291.28 118 396 C79.06 396 40.12 396 0 396 C0 265.32 0 134.64 0 0 Z " fill="#A9143E" transform="translate(1168,247)"/>
<path d="M0 0 C121.77 0 243.54 0 369 0 C369 29.37 369 58.74 369 89 C328.74 89 288.48 89 247 89 C247 190.31 247 291.62 247 396 C205.09 396 163.18 396 120 396 C120 294.69 120 193.38 120 89 C80.4 89 40.8 89 0 89 C0 59.63 0 30.26 0 0 Z " fill="#A9143E" transform="translate(737,247)"/>
<path d="M0 0 C3.1049265 3.1049265 5.02034381 5.34709729 7.25 8.97265625 C7.85223389 9.94501221 8.45446777 10.91736816 9.07495117 11.91918945 C9.71021729 12.95648193 10.3454834 13.99377441 11 15.0625 C12.3498629 17.24503757 13.70012799 19.42732645 15.05078125 21.609375 C16.05359131 23.23456055 16.05359131 23.23456055 17.07666016 24.89257812 C19.7530081 29.21658888 22.46606745 33.51677155 25.1875 37.8125 C26.16017795 39.35024669 27.13283431 40.88800704 28.10546875 42.42578125 C28.58161621 43.17811035 29.05776367 43.93043945 29.54833984 44.70556641 C31.53248988 47.84163133 33.51399855 50.97936108 35.49536133 54.1171875 C36.49112188 55.69411805 37.48705035 57.27094258 38.4831543 58.84765625 C41.08488619 62.96596054 43.68452204 67.0855697 46.28125 71.20703125 C46.82007813 72.06167969 47.35890625 72.91632813 47.9140625 73.796875 C48.94073217 75.42538551 49.96681261 77.05426769 50.9921875 78.68359375 C51.45882812 79.42351562 51.92546875 80.1634375 52.40625 80.92578125 C52.81166016 81.56942627 53.21707031 82.21307129 53.63476562 82.8762207 C55.05214619 85.14124896 55.05214619 85.14124896 57.05358911 87.70884812 C59.26649151 91.4506058 59.50223267 93.47474106 59.50780869 97.7822094 C59.51726431 98.77269492 59.51726431 98.77269492 59.52691096 99.78319025 C59.54316133 101.99366538 59.53101275 104.20305506 59.51898193 106.4135437 C59.52485796 108.01502692 59.53248541 109.61650451 59.541713 111.21797192 C59.56199112 115.61692378 59.55741471 120.01555348 59.54880548 124.41453075 C59.54386566 129.158883 59.56193928 133.90315381 59.57722473 138.6474762 C59.6005529 146.86673718 59.60928457 155.08590989 59.60811615 163.30520248 C59.6064479 175.188914 59.62677162 187.07250774 59.65247145 198.95618786 C59.69356954 218.23641117 59.71686971 237.51661331 59.72900391 256.796875 C59.74082954 275.52638789 59.76102077 294.25586092 59.79248047 312.98535156 C59.79538462 314.71693798 59.79538462 314.71693798 59.79834744 316.48350595 C59.80811192 322.27471796 59.81804104 328.06592967 59.82805204 333.85714126 C59.91089665 381.90474128 59.9648682 429.95234303 60 478 C60.61749554 477.31179017 61.23499107 476.62358034 61.87119859 475.91451567 C62.6814729 475.0125747 63.49174721 474.11063372 64.32657528 473.1813612 C65.12969582 472.28690137 65.93281635 471.39244154 66.76027387 470.47087687 C69.15508712 467.82890713 71.59764548 465.27555319 74.11743164 462.75317383 C75.01188492 461.85556839 75.9063382 460.95796295 76.82789612 460.03315735 C77.77185559 459.09098782 78.71594547 458.14894893 79.66015625 457.20703125 C80.65960453 456.20690665 81.65890456 455.20663389 82.6580658 454.20622253 C84.7347018 452.12812632 86.81309905 450.05181308 88.89282227 447.97680664 C91.53743888 445.33790128 94.17751826 442.69450934 96.81629276 440.04976368 C98.87270865 437.98970926 100.93153108 435.93207311 102.99105644 433.87512779 C103.96485877 432.90198487 104.93794027 431.92811999 105.91023445 430.95347023 C110.91780875 425.93641849 115.95926201 421.02512374 121.34658813 416.41529846 C123.72488786 414.37950568 126.01315365 412.249124 128.3125 410.125 C132.77873514 406.05140091 137.36921379 402.19172297 142.07421875 398.3984375 C144.72227297 396.22766942 147.31142132 394.00720425 149.89208984 391.7578125 C157.5974166 385.05337491 165.58735407 378.7951301 173.76269531 372.67529297 C175.25152305 371.56045928 176.73786776 370.44230171 178.22167969 369.32080078 C207.06314428 347.52933222 237.68327441 328.19560835 270 312 C271.60193459 311.18693061 273.20351429 310.3731615 274.8046875 309.55859375 C278.52321999 307.67611722 282.24113833 305.80092881 286 304 C286.77770752 303.58669434 287.55541504 303.17338867 288.35668945 302.74755859 C291 302 291 302 293.63696289 302.89941406 C294.5727417 303.43276367 295.50852051 303.96611328 296.47265625 304.515625 C297.52791504 305.10287354 298.58317383 305.69012207 299.67041016 306.29516602 C301.34949463 307.26280884 301.34949463 307.26280884 303.0625 308.25 C304.812748 309.23268972 306.56660613 310.20869319 308.32092285 311.18409729 C309.50259958 311.84134432 310.68318108 312.50056429 311.8626709 313.16172791 C317.96650592 316.57328487 324.21172535 319.66870798 330.50415039 322.71386719 C334.94642371 324.88712104 339.13429043 327.24755234 343.26904297 329.96459961 C345.13338911 331.16424809 345.13338911 331.16424809 348 332 C348.33 333.65 348.66 335.3 349 337 C342.25055427 341.43889928 335.19080862 344.95986578 327.9375 348.5 C315.01427254 354.86829409 302.45564468 361.75637751 290 369 C288.52372068 369.84814934 287.04717536 370.69583592 285.5703125 371.54296875 C268.21947961 381.5564957 251.34943735 392.4261715 235 404 C233.94184082 404.74733398 233.94184082 404.74733398 232.86230469 405.50976562 C217.46100481 416.42043506 202.48354823 427.89466753 188 440 C187.48630859 440.42877441 186.97261719 440.85754883 186.44335938 441.29931641 C180.02684283 446.66353946 173.69210312 452.09768692 167.51171875 457.734375 C165.41361078 459.62691407 163.29547384 461.48909517 161.1640625 463.34375 C150.7146381 472.47254243 140.76214599 482.14450002 130.9375 491.9375 C129.76030396 493.10780762 129.76030396 493.10780762 128.55932617 494.30175781 C124.41516298 498.45700521 120.43922747 502.69690881 116.6105957 507.14428711 C114.18805379 509.93551662 111.65309089 512.61725909 109.125 515.3125 C104.66298176 520.10861394 100.43214352 525.02841295 96.33203125 530.140625 C94.1731413 532.78770615 91.95681447 535.36654512 89.7109375 537.93920898 C83.23621779 545.36957242 77.29295211 553.10528478 71.45605469 561.04248047 C70.11078412 562.85106185 68.73968916 564.63436856 67.3515625 566.41015625 C49.85729289 588.92460362 34.83917643 613.32352541 20.70068359 638.04101562 C18.51306131 641.84721461 16.27117732 645.6182151 14 649.375 C11.81914809 652.9827765 9.64521836 656.59360735 7.5 660.22265625 C6.87351562 661.27864014 6.87351562 661.27864014 6.234375 662.35595703 C5.42944445 663.71332212 4.62722721 665.07230099 3.828125 666.43310547 C2.91293313 667.97210339 1.9603345 669.48875932 1 671 C0.67 671 0.34 671 0 671 C0 449.57 0 228.14 0 0 Z " fill="#00308A" transform="translate(375,128)"/>
<path d="M0 0 C0.33 0 0.66 0 1 0 C1.18740939 14.67351082 1.32821138 29.3468619 1.41449738 44.02132893 C1.4556382 50.83599825 1.51166117 57.64992127 1.60351562 64.46411133 C1.6921859 71.04525689 1.7383298 77.62583339 1.75901794 84.20760155 C1.77375316 86.71340289 1.80252831 89.21916384 1.84584045 91.72463417 C2.24018478 115.49020476 2.24018478 115.49020476 -5.03218079 123.16261292 C-5.68156113 123.76895065 -6.33094147 124.37528839 -7 125 C-7.8688295 126.15661922 -8.71053372 127.33459778 -9.51171875 128.5390625 C-19.62374551 142.88107533 -30.40910979 156.66998969 -41.546875 170.2265625 C-42.87156929 171.8432593 -44.1863296 173.46808288 -45.5 175.09375 C-49.81740384 180.43054086 -54.26909833 185.60007006 -58.890625 190.67578125 C-60.74626657 192.72042335 -62.56756376 194.78784149 -64.375 196.875 C-67.41027936 200.35706113 -70.50781664 203.77889382 -73.625 207.1875 C-74.08052246 207.68685059 -74.53604492 208.18620117 -75.00537109 208.70068359 C-77.12400419 211.00989377 -79.06630279 213.04735886 -81.62557507 214.87539959 C-85.38101449 219.81733201 -84.69133144 224.78153038 -84.63923645 230.82563782 C-84.64759213 232.1448138 -84.6559478 233.46398979 -84.66455668 234.8231408 C-84.68707183 238.48335429 -84.67849432 242.14293767 -84.6648711 245.8031708 C-84.65561465 249.75068745 -84.67514767 253.69807338 -84.69119263 257.64555359 C-84.71504529 264.48432976 -84.72063821 271.3229257 -84.71384621 278.16173744 C-84.70405251 288.04948187 -84.72177038 297.93702623 -84.74621352 307.82473829 C-84.78512266 323.86664308 -84.80176721 339.90849072 -84.80444336 355.95043945 C-84.80709066 371.53412814 -84.82020314 387.11775002 -84.84741211 402.70141602 C-84.84908549 403.66191497 -84.85075887 404.62241393 -84.85248295 405.61201892 C-84.86094239 410.43053701 -84.86960781 415.2490547 -84.87837565 420.06757224 C-84.95085264 460.04503741 -84.98721037 500.02247378 -85 540 C-88.07647968 537.57650666 -90.80524714 535.26119202 -93.3125 532.25 C-95.76956779 529.37187287 -98.30065323 526.65235621 -101 524 C-104.25029983 520.79970478 -107.24724245 517.45775424 -110.21875 514 C-112.0742521 511.91662922 -114.01223101 509.95718793 -116 508 C-118.59982183 505.44009866 -121.06268398 502.8322046 -123.4375 500.0625 C-126.70289527 496.26155015 -130.21518976 492.7672101 -133.78125 489.25 C-137.01607095 485.96961819 -140.00328867 482.49616322 -143 479 C-143.33 478.67 -143.66 478.34 -144 478 C-144.09778542 475.4075962 -144.12994761 472.84185304 -144.12025452 470.24900818 C-144.12153615 469.0165355 -144.12153615 469.0165355 -144.12284368 467.75916439 C-144.124501 464.9845222 -144.11897302 462.20993943 -144.11352539 459.43530273 C-144.11324355 457.45488486 -144.1134012 455.47446688 -144.1139679 453.49404907 C-144.11425598 448.09964316 -144.10835748 442.70525926 -144.10139394 437.31085849 C-144.09516222 431.68006421 -144.09455675 426.04926948 -144.09336853 420.41847229 C-144.09025467 409.74766975 -144.08204056 399.0768774 -144.07201904 388.40607935 C-144.06085958 376.26118582 -144.05534788 364.1162918 -144.05032361 351.97139442 C-144.03985799 326.98092395 -144.0222575 301.99046255 -144 277 C-148.10899833 279.73780451 -152.21780045 282.47590315 -156.32643127 285.21425915 C-157.72036103 286.14324039 -159.11434175 287.07214516 -160.50837708 288.00096798 C-170.3641908 294.56783277 -180.20398101 301.15666339 -190 307.8125 C-191.76864217 309.01181869 -193.53748242 310.21070545 -195.31008911 311.40415955 C-196.52081285 312.23160925 -197.7204569 313.07550616 -198.90841675 313.93531799 C-202.72087114 316.65363568 -206.49428361 318.72796682 -210.76611328 320.65795898 C-217.19586146 323.82452924 -222.86946574 326.98975535 -227 333 C-230.48399979 344.17703279 -229.48512848 356.31491712 -228.97418213 367.86999512 C-228.80795205 372.17315475 -228.76915051 376.47740497 -228.71875 380.78320312 C-228.60192885 389.19486656 -228.34647375 397.59467353 -228 406 C-231.54650935 404.84897166 -234.69883834 403.78152628 -237.828125 401.7421875 C-238.88362549 401.06361694 -238.88362549 401.06361694 -239.96044922 400.37133789 C-240.71600098 399.87754639 -241.47155273 399.38375488 -242.25 398.875 C-243.94432517 397.78622242 -245.63969639 396.69907151 -247.3359375 395.61328125 C-248.70057129 394.73857178 -248.70057129 394.73857178 -250.09277344 393.84619141 C-255.31821889 390.52784924 -260.59832542 387.29851888 -265.875 384.0625 C-268.11205295 382.68892223 -270.34903259 381.31522508 -272.5859375 379.94140625 C-273.67100586 379.27512207 -274.75607422 378.60883789 -275.87402344 377.92236328 C-280.4224372 375.12525223 -284.96180316 372.31364691 -289.5 369.5 C-298.41809915 363.97250183 -307.35296407 358.47252069 -316.29052734 352.9765625 C-326.54002 346.67201294 -336.77310927 340.34113366 -347 334 C-346 331 -346 331 -342.94677734 329.21337891 C-341.58136446 328.54112956 -340.21062508 327.87963645 -338.8359375 327.2265625 C-338.1005928 326.86664215 -337.36524811 326.5067218 -336.60762024 326.13589478 C-335.02504136 325.36158366 -333.44044998 324.59137521 -331.85409546 323.8248291 C-327.69608525 321.81244122 -323.55669986 319.76261834 -319.41796875 317.7109375 C-318.18754601 317.10149292 -318.18754601 317.10149292 -316.93226624 316.47973633 C-306.71564567 311.39740938 -296.81335413 305.82138971 -287 300 C-286.07541992 299.45456543 -285.15083984 298.90913086 -284.19824219 298.34716797 C-249.65679617 277.89453079 -216.86418105 254.65887927 -186 229 C-185.41250977 228.51160645 -184.82501953 228.02321289 -184.21972656 227.52001953 C-177.87119259 222.22601795 -171.62015249 216.83669204 -165.51171875 211.265625 C-163.42846841 209.38648783 -161.32460116 207.53924811 -159.20703125 205.69921875 C-148.90373295 196.69899524 -139.06536539 187.15258396 -129.375 177.5 C-128.73691406 176.86650635 -128.09882813 176.2330127 -127.44140625 175.58032227 C-123.71071391 171.83735792 -120.18221221 167.97186008 -116.72802734 163.97314453 C-113.94631995 160.79685756 -111.02892307 157.75159735 -108.125 154.6875 C-103.26646836 149.52070379 -98.61932067 144.2638362 -94.19140625 138.71875 C-92.21280539 136.26401525 -90.18214505 133.86392053 -88.12451172 131.4753418 C-76.02853499 117.39201543 -65.56578927 102.59173449 -55.76611328 86.83056641 C-52.87666641 82.19962266 -49.93617961 77.6013959 -47 73 C-45.83569518 71.17072713 -44.67163296 69.34129982 -43.5078125 67.51171875 C-41.14932214 63.80542555 -38.78984664 60.09976197 -36.4296875 56.39453125 C-35.24474049 54.53388676 -34.05984442 52.67320982 -32.875 50.8125 C-32.29306885 49.89871582 -31.7111377 48.98493164 -31.11157227 48.04345703 C-27.86542913 42.94270021 -24.6323516 37.83403019 -21.41186523 32.71704102 C-16.59727763 25.06902994 -11.73245635 17.45572834 -6.8125 9.875 C-6.24716553 9.00278809 -5.68183105 8.13057617 -5.09936523 7.23193359 C-4.57802002 6.43094238 -4.0566748 5.62995117 -3.51953125 4.8046875 C-2.82500854 3.73710205 -2.82500854 3.73710205 -2.11645508 2.64794922 C-1 1 -1 1 0 0 Z " fill="#A9143E" transform="translate(347,128)"/>
<path d="M0 0 C0.50789063 0.50917969 1.01578125 1.01835937 1.5390625 1.54296875 C2.06242187 2.04441406 2.58578125 2.54585937 3.125 3.0625 C4.1640625 4.73046875 4.1640625 4.73046875 4.19921875 6.625 C2.63452346 9.80753117 0.01227321 11.54128906 -2.7734375 13.60546875 C-4.05870371 14.58579335 -5.34385442 15.5662694 -6.62890625 16.546875 C-7.31388184 17.0639502 -7.99885742 17.58102539 -8.70458984 18.11376953 C-12.36026042 20.8867192 -15.96904015 23.71976521 -19.5859375 26.54296875 C-21.11685504 27.73350056 -22.64810874 28.92360021 -24.1796875 30.11328125 C-24.94667969 30.70915039 -25.71367187 31.30501953 -26.50390625 31.91894531 C-28.05859375 33.1266276 -29.61328125 34.3343099 -31.16796875 35.54199219 C-38.7366685 41.42204506 -46.30486071 47.30226051 -53.8359375 53.23046875 C-61.37277159 59.16320894 -68.94691621 65.04768793 -76.52148438 70.93212891 C-80.29409382 73.86346236 -84.06496328 76.79703218 -87.8359375 79.73046875 C-92.38191596 83.26678024 -96.92831298 86.80254718 -101.4765625 90.3359375 C-108.27523102 95.61868669 -115.07062231 100.90504207 -121.8359375 106.23046875 C-129.37277159 112.16320894 -136.94691621 118.04768793 -144.52148438 123.93212891 C-148.29409382 126.86346236 -152.06496328 129.79703218 -155.8359375 132.73046875 C-160.38191596 136.26678024 -164.92831298 139.80254718 -169.4765625 143.3359375 C-180.51073976 151.89749163 -180.51073976 151.89749163 -191.48242188 160.53881836 C-194.82060554 163.18348564 -198.20398244 165.7509796 -201.6328125 168.27734375 C-202.45394531 168.89158203 -203.27507813 169.50582031 -204.12109375 170.13867188 C-205.72769591 171.33916778 -207.3445267 172.52613152 -208.97265625 173.69726562 C-209.70613281 174.24962891 -210.43960938 174.80199219 -211.1953125 175.37109375 C-211.84983398 175.85094727 -212.50435547 176.33080078 -213.17871094 176.82519531 C-218.26945237 182.67789805 -217.27069681 191.90315252 -217.4609375 199.16796875 C-217.49960938 200.37646484 -217.53828125 201.58496094 -217.578125 202.83007812 C-217.67193208 205.79672692 -217.75762996 208.76337711 -217.8359375 211.73046875 C-236.97667266 212.08126037 -256.11675366 212.34556649 -275.26003933 212.50765133 C-284.14930764 212.58492074 -293.03657621 212.69020353 -301.92456055 212.86206055 C-309.67380861 213.01182734 -317.42160861 213.10839826 -325.17226368 213.14179617 C-329.27512357 213.16131565 -333.37384222 213.2069745 -337.47537041 213.3164196 C-362.45310033 213.95764494 -362.45310033 213.95764494 -368.04323196 210.27724075 C-371.8098885 206.2962144 -373.17986336 201.85691522 -374.8359375 196.73046875 C-377.56378808 192.81664923 -380.66886109 189.2953422 -383.8359375 185.73046875 C-384.49070068 184.98531006 -384.49070068 184.98531006 -385.15869141 184.22509766 C-399.05645773 168.47429582 -414.80046166 155.08076215 -431.4453125 142.328125 C-432.00025391 141.90289551 -432.55519531 141.47766602 -433.12695312 141.03955078 C-434.27888214 140.15717315 -435.43123512 139.27534876 -436.58398438 138.39404297 C-445.06495548 131.89274606 -453.09112706 125.09381838 -460.8359375 117.73046875 C-461.51398437 117.10527344 -462.19203125 116.48007812 -462.890625 115.8359375 C-476.87660422 102.56479722 -485.50107815 83.43902487 -486.30615234 64.21411133 C-486.50465353 49.74467632 -481.7632343 36.3549341 -471.90625 25.64453125 C-458.05073151 12.83471227 -441.59932034 10.95260326 -423.61962891 11.546875 C-401.23300324 13.02334777 -382.41398962 25.54886407 -366.8359375 40.73046875 C-365.85367188 41.60251953 -365.85367188 41.60251953 -364.8515625 42.4921875 C-351.67996088 54.4855954 -343.01869526 74.13630514 -341.83984375 91.71875 C-341.81972658 107.22908562 -346.01251617 120.47723647 -356.8359375 131.73046875 C-364.61727216 138.92188273 -373.46506344 143.61788329 -383.8359375 145.73046875 C-379.69093721 150.15620611 -375.10603839 153.66753781 -370.2109375 157.23046875 C-369.37989502 157.83995361 -368.54885254 158.44943848 -367.69262695 159.07739258 C-361.11013293 163.87507639 -354.40208344 168.47039685 -347.64575195 173.01855469 C-341.94491996 176.88631597 -336.4969348 180.99059023 -331.19799805 185.39331055 C-328.44017048 187.64987018 -326.38345836 189.22880123 -322.8359375 189.73046875 C-309.05217647 186.78699351 -293.08262213 177.02742668 -284.58709717 165.91625977 C-278.28511646 154.45140371 -279.6809585 139.15246303 -280.1484375 126.48046875 C-280.17630844 125.68515747 -280.20417938 124.88984619 -280.2328949 124.07043457 C-280.35012814 92.1528405 -280.35012814 92.1528405 -293.0234375 64.35546875 C-301.21266592 59.62391455 -308.30821645 58.19392968 -317.7109375 58.23046875 C-319.729179 58.23813296 -321.74758032 58.22842729 -323.765625 58.19921875 C-324.64460449 58.20373047 -325.52358398 58.20824219 -326.42919922 58.21289062 C-328.8359375 57.73046875 -328.8359375 57.73046875 -331.13720703 56.37304688 C-333.853971 52.14679606 -333.25567187 47.88318062 -333.0859375 42.98046875 C-333.06789063 41.99691406 -333.04984375 41.01335937 -333.03125 40 C-332.98417876 37.57583092 -332.91844492 35.15364816 -332.8359375 32.73046875 C-324.34202646 32.68379833 -315.84817044 32.64842544 -307.35416222 32.62684441 C-303.40858758 32.61647825 -299.4631017 32.60245289 -295.51757812 32.57958984 C-291.69851454 32.55760214 -287.87953544 32.54584649 -284.06041336 32.54071426 C-282.61502378 32.5370644 -281.16963798 32.52993979 -279.72428513 32.51900864 C-262.78815077 32.39620339 -246.30679864 33.48113112 -232.80078125 44.7890625 C-220.97410213 56.47466791 -217.83432989 74.00813293 -217.55235291 90.02981567 C-217.53672066 94.1186508 -217.58423684 98.20471893 -217.6484375 102.29296875 C-217.66354095 103.9980348 -217.67721916 105.70311408 -217.68945312 107.40820312 C-217.72194336 111.51596268 -217.77339792 115.62306138 -217.8359375 119.73046875 C-192.23718766 102.72410867 -192.23718766 102.72410867 -166.9296875 85.2890625 C-152.01326272 74.84043068 -136.90428653 64.70081454 -121.72433472 54.64042664 C-118.4509891 52.47063301 -115.18247617 50.29423198 -111.92407227 48.10205078 C-104.31883019 42.99021332 -96.64753934 38.04825243 -88.7734375 33.35546875 C-87.70834961 32.71971924 -86.64326172 32.08396973 -85.54589844 31.42895508 C-15.0292639 -10.3925761 -15.0292639 -10.3925761 0 0 Z " fill="#00308A" transform="translate(3899.8359375,199.26953125)"/>
<path d="M0 0 C48.51 0 97.02 0 147 0 C147 11.88 147 23.76 147 36 C156.08683554 43.62425485 156.08683554 43.62425485 165.375 50.9375 C166.46793777 51.77019078 167.56036743 52.60354879 168.65234375 53.4375 C169.20132324 53.85644531 169.75030273 54.27539062 170.31591797 54.70703125 C173.20792827 56.92739752 176.07289513 59.18195272 178.9375 61.4375 C179.51870605 61.89503662 180.09991211 62.35257324 180.69873047 62.82397461 C181.87725631 63.75210036 183.05564149 64.68040476 184.23388672 65.60888672 C187.15371048 67.90874237 190.07701893 70.20415945 193 72.5 C194.16668361 73.4166451 195.33335027 74.33331177 196.5 75.25 C197.36625 75.930625 197.36625 75.930625 198.25 76.625 C217.5 91.75 217.5 91.75 219.25048828 93.12548828 C220.41539177 94.04069993 221.58043053 94.95573944 222.74560547 95.87060547 C225.69039045 98.18313021 228.63265185 100.49874234 231.5703125 102.8203125 C236.92061028 107.04434765 242.28348325 111.23896617 247.75 115.3125 C255.13816944 120.81933187 262.38943981 126.5002464 269.65332031 132.16943359 C273.43222345 135.11722966 277.21630207 138.05836276 281 141 C282.50002631 142.16663284 284.00002627 143.33329955 285.5 144.5 C286.2425 145.0775 286.985 145.655 287.75 146.25 C294.5 151.5 294.5 151.5 296.7512207 153.25097656 C298.24711662 154.41443312 299.74304745 155.57784478 301.23901367 156.74121094 C305.05209776 159.70661998 308.86452064 162.67287262 312.67578125 165.640625 C320.29143755 171.56959232 327.91771453 177.48322691 335.57421875 183.359375 C340.58821202 187.21606077 345.57290793 191.11073593 350.55859375 195.00390625 C351.27789063 195.56464844 351.9971875 196.12539063 352.73828125 196.703125 C353.44098145 197.25597168 354.14368164 197.80881836 354.86767578 198.37841797 C356.30425311 199.47090098 357.7731847 200.52194543 359.26904297 201.53173828 C364.71950409 205.26100115 364.71950409 205.26100115 366.21875 209.2109375 C366.3115625 210.25507812 366.404375 211.29921875 366.5 212.375 C366.6134375 213.43460938 366.726875 214.49421875 366.84375 215.5859375 C366.8953125 216.38257813 366.946875 217.17921875 367 218 C321.45328856 219.8782149 280.12223308 186.84106889 243.73526001 162.78662109 C237.81805918 158.87573873 231.88164849 154.9948021 225.9375 151.125 C224.56658203 150.23180054 224.56658203 150.23180054 223.16796875 149.32055664 C221.35541425 148.13964502 219.54275272 146.95889765 217.72998047 145.77832031 C212.98530294 142.68761819 208.24279973 139.59358255 203.5 136.5 C201.58724607 135.25259422 199.67448566 134.00519838 197.76171875 132.7578125 C193.88905063 130.23218799 190.01668591 127.70609915 186.14453125 125.1796875 C181.3721041 122.0660062 176.59894439 118.95345106 171.82519531 115.84179688 C169.9102709 114.59342237 167.99556412 113.34471396 166.08105469 112.09570312 C163.28388187 110.27109157 160.48580589 108.44787319 157.6875 106.625 C156.83905518 106.07118652 155.99061035 105.51737305 155.11645508 104.94677734 C154.33939209 104.44098145 153.5623291 103.93518555 152.76171875 103.4140625 C152.08069092 102.9701416 151.39966309 102.5262207 150.69799805 102.06884766 C148.98370183 100.95101517 148.98370183 100.95101517 147 100 C146.67 127.39 146.34 154.78 146 183 C124.88 183 103.76 183 82 183 C82.25265625 173.90824219 82.5053125 164.81648437 82.765625 155.44921875 C82.86320138 149.65655649 82.95354057 143.86523662 83.01171875 138.07226562 C83.10522058 128.89369245 83.22734186 119.72217489 83.53955078 110.5480957 C86.57434018 77.25631059 86.57434018 77.25631059 76.74298477 47.57436275 C70.92549059 41.99998939 64.13254585 38.95231108 56.55944824 36.39077759 C51.60424755 34.45463985 47.81535129 31.59854823 43.59967041 28.34745789 C41.06962051 26.67449052 41.06962051 26.67449052 38.34490967 27.64900208 C35.27404689 29.41825114 32.55076732 31.51623384 29.8125 33.75 C28.56953272 34.74544419 27.32601554 35.74020203 26.08203125 36.734375 C25.42283691 37.26353516 24.76364258 37.79269531 24.08447266 38.33789062 C20.41791912 41.26151401 16.7066092 44.12745667 13 47 C8.65288588 50.37427205 4.30812307 53.75100124 -0.01171875 57.16015625 C-0.63498047 57.65193359 -1.25824219 58.14371094 -1.90039062 58.65039062 C-3.04216705 59.55258117 -4.18289881 60.45609642 -5.32226562 61.36132812 C-9.1304944 64.37082727 -13.03545752 67.20237946 -17 70 C-13.93738157 72.04174562 -10.90962166 73.41133193 -7.5625 74.9375 C3.34659094 80.21411797 13.28496455 88.58711618 18 100 C24.02009123 118.23065365 22.82396526 134.9146154 14.375 152.1875 C1.44475166 177.37326836 -21.38302401 194.27250063 -47.97265625 202.97265625 C-62.07110704 206.88383937 -78.52004032 206.90674057 -92 201 C-92.9384375 200.59910156 -93.876875 200.19820312 -94.84375 199.78515625 C-106.75321271 194.0144194 -115.40575595 184.37404407 -120 172 C-125.4210978 154.60046641 -121.4094732 136.54632878 -113.27539062 120.73388672 C-109.8024729 114.3229568 -105.65087919 108.62049711 -101 103 C-100.35289062 102.20078125 -99.70578125 101.4015625 -99.0390625 100.578125 C-93.97690204 94.58617997 -88.16777486 89.81387306 -82 85 C-80.89144568 84.12560998 -79.7833887 83.25058913 -78.67578125 82.375 C-73.9494041 78.64544177 -69.20652246 74.93723182 -64.453125 71.2421875 C-52.16805709 61.67369845 -40.33554048 51.67951324 -29 41 C-28.07316406 40.13890625 -27.14632812 39.2778125 -26.19140625 38.390625 C-21.07875157 33.4882781 -16.51372878 28.39757705 -12.25 22.75 C-11.8264624 22.20311523 -11.4029248 21.65623047 -10.96655273 21.09277344 C-6.11605566 14.43798518 -3.63464389 7.78852263 0 0 Z " fill="#00308A" transform="translate(3536,437)"/>
<path d="M0 0 C16.08974279 -0.46849228 32.17725571 -0.82047698 48.27218246 -1.03624344 C55.74677016 -1.13912368 63.21710764 -1.27916974 70.68896484 -1.50878906 C77.20661199 -1.70898778 83.72118249 -1.83734652 90.24181867 -1.8817699 C93.69234101 -1.90772811 97.1340692 -1.96800911 100.58174896 -2.11460114 C121.46648975 -2.96858966 121.46648975 -2.96858966 127.30254745 1.93442726 C131.21071456 6.66245276 133.70838318 11.86680033 135.96800613 17.53495216 C137.47866532 21.14335265 139.47661065 24.3863942 141.5390625 27.69921875 C142.23283201 28.87610218 142.922949 30.05514648 143.609375 31.23632812 C150.38462804 42.83697941 157.18853687 54.42051267 164 66 C164.495 33.33 164.495 33.33 165 0 C200.64 0 236.28 0 273 0 C273 67.65 273 135.3 273 205 C249.219375 205.20625 225.43875 205.4125 200.9375 205.625 C193.4312085 205.71604004 185.92491699 205.80708008 178.19116211 205.90087891 C169.01867676 205.94604492 169.01867676 205.94604492 164.72340393 205.95443726 C161.72545748 205.96374861 158.72928481 206.00118747 155.73182678 206.05575562 C151.90443495 206.12450639 148.07961057 206.14488835 144.25165856 206.13072276 C142.84936894 206.13368301 141.446987 206.15343453 140.04522884 206.19215131 C129.57612457 206.46780607 129.57612457 206.46780607 125.64908314 202.81064892 C123.85228461 200.27737432 122.3933547 197.77148797 121 195 C120.31591064 193.93724854 119.63182129 192.87449707 118.92700195 191.77954102 C118.09108521 190.40560181 118.09108521 190.40560181 117.23828125 189.00390625 C116.60075928 187.96089355 115.9632373 186.91788086 115.30639648 185.84326172 C114.64841064 184.76061035 113.9904248 183.67795898 113.3125 182.5625 C111.89506793 180.24236261 110.47501322 177.92383557 109.0546875 175.60546875 C108.70540695 175.03483704 108.3561264 174.46420532 107.9962616 173.87628174 C105.01809347 169.01596749 101.99143641 164.18796188 98.9375 159.375 C94.4948861 152.37021169 90.08121093 145.3480813 85.6875 138.3125 C84.74185181 136.79825439 84.74185181 136.79825439 83.77709961 135.25341797 C82.4923985 133.19587228 81.20781255 131.13825468 79.92333984 129.08056641 C76.78410777 124.05253513 73.64192849 119.02634659 70.5 114 C69.24998536 112.00000915 67.99998538 110.00000914 66.75 108 C66.13125 107.01 65.5125 106.02 64.875 105 C47.0625 76.5 47.0625 76.5 29.25 48 C28.6302832 47.0085498 28.01056641 46.01709961 27.37207031 44.99560547 C26.13148426 43.01047364 24.89124559 41.02512467 23.65136719 39.03955078 C20.38525884 33.81016561 17.11187561 28.58551543 13.828125 23.3671875 C13.14556641 22.28050781 12.46300781 21.19382812 11.75976562 20.07421875 C10.45339748 17.99469395 9.14491917 15.91649275 7.83398438 13.83984375 C7.24423828 12.90011719 6.65449219 11.96039063 6.046875 10.9921875 C5.52963867 10.17089355 5.01240234 9.34959961 4.47949219 8.50341797 C2.84182656 5.73235802 1.42754163 2.88396093 0 0 Z " fill="#00308A" transform="translate(3041,437)"/>
<path d="M0 0 C41.91 0 83.82 0 127 0 C127 41.25 127 82.5 127 125 C185.41 125 243.82 125 304 125 C304 151.4 304 177.8 304 205 C203.68 205 103.36 205 0 205 C0 137.35 0 69.7 0 0 Z " fill="#00308A" transform="translate(2357,437)"/>
<path d="M0 0 C23.80125 -0.185625 47.6025 -0.37125 72.125 -0.5625 C79.64039551 -0.64443604 87.15579102 -0.72637207 94.89892578 -0.81079102 C104.07592773 -0.85144043 104.07592773 -0.85144043 108.37203979 -0.85899353 C111.37321844 -0.86738018 114.37296471 -0.90110357 117.37374878 -0.95018005 C121.20351231 -1.01198308 125.03119777 -1.03041178 128.86141372 -1.01765049 C130.26572296 -1.02031798 131.67010581 -1.03813444 133.07398629 -1.07293618 C143.57142789 -1.3210437 143.57142789 -1.3210437 147.13166332 1.97121334 C148.67971937 4.25886805 149.87179923 6.48362112 151 9 C151.87120483 10.42348755 151.87120483 10.42348755 152.76000977 11.87573242 C153.23237061 12.69404541 153.70473145 13.5123584 154.19140625 14.35546875 C154.73676025 15.29600098 155.28211426 16.2365332 155.84399414 17.20556641 C156.41110107 18.18960449 156.97820801 19.17364258 157.5625 20.1875 C158.80155364 22.32452596 160.04114885 24.46123799 161.28125 26.59765625 C161.90257813 27.66902832 162.52390625 28.74040039 163.1640625 29.84423828 C165.94116859 34.61775867 168.74926348 39.37270861 171.5625 44.125 C172.09721924 45.02879395 172.63193848 45.93258789 173.18286133 46.86376953 C174.78805592 49.57615357 176.3939613 52.2881157 178 55 C180.08420207 58.52031998 182.16754732 62.04114488 184.25 65.5625 C184.77746826 66.45428955 185.30493652 67.3460791 185.84838867 68.26489258 C188.93422332 73.48739159 192.00802548 78.71678658 195.0703125 83.953125 C202.41546742 96.51140987 209.80002556 109.04081165 217.30908203 121.50219727 C223.10108346 131.13056967 228.78461697 140.82124095 234.45507812 150.52148438 C234.80298401 151.11660828 235.15088989 151.71173218 235.50933838 152.32489014 C236.45236869 153.9386291 237.39466771 155.55279535 238.33691406 157.16699219 C239.43790999 159.04249964 240.56472356 160.90310822 241.71777344 162.74707031 C243 165 243 165 243 167 C226.82316313 167.23381212 210.64687589 167.41004308 194.46875668 167.51812172 C186.95654185 167.5696435 179.44537799 167.6398551 171.93383789 167.75439453 C165.385131 167.85420446 158.83718523 167.91861305 152.28773886 167.94088495 C148.82073403 167.95390157 145.35590614 167.98438367 141.88960075 168.05730057 C138.01575448 168.13812616 134.14401908 168.1398909 130.26928711 168.13525391 C129.12561172 168.17120667 127.98193634 168.20715942 126.80360413 168.24420166 C119.16808123 168.14531 119.16808123 168.14531 115.72336006 164.76774216 C113.49716839 161.63383328 111.71529033 158.43058066 110 155 C109.67 158.96 109.34 162.92 109 167 C73.03 167 37.06 167 0 167 C0 111.89 0 56.78 0 0 Z " fill="#00308A" transform="translate(2936,245)"/>
<path d="M0 0 C40.26 0 80.52 0 122 0 C122 67.65 122 135.3 122 205 C81.74 205 41.48 205 0 205 C0 137.35 0 69.7 0 0 Z " fill="#00308A" transform="translate(2726,437)"/>
<path d="M0 0 C35.97 0 71.94 0 109 0 C109 67.65 109 135.3 109 205 C73.03 205 37.06 205 0 205 C0 137.35 0 69.7 0 0 Z " fill="#00308A" transform="translate(2907,437)"/>
<path d="M0 0 C41.91 0 83.82 0 127 0 C127 55.11 127 110.22 127 167 C85.09 167 43.18 167 0 167 C0 111.89 0 56.78 0 0 Z " fill="#00308A" transform="translate(2386,245)"/>
<path d="M0 0 C40.59 0 81.18 0 123 0 C123 55.11 123 110.22 123 167 C82.41 167 41.82 167 0 167 C0 111.89 0 56.78 0 0 Z " fill="#00308A" transform="translate(2754,245)"/>
<path d="M0 0 C35.64 0 71.28 0 108 0 C108 55.11 108 110.22 108 167 C72.36 167 36.72 167 0 167 C0 111.89 0 56.78 0 0 Z " fill="#00308A" transform="translate(3235,245)"/>
<path d="M0 0 C0.27475092 4.37372727 0.4727289 8.74273181 0.60424805 13.12255859 C0.65912053 14.60717307 0.73386328 16.09120534 0.82983398 17.57373047 C1.60875522 29.92817096 1.60875522 29.92817096 -2.37231445 35.05517578 C-5.3203125 37.65625 -5.3203125 37.65625 -8.27001953 39.79882812 C-14.83499521 45.09214066 -17.41178177 53.96762709 -19 62 C-19.18182341 64.56545709 -19.27543582 67.13835709 -19.29052734 69.71020508 C-19.29724457 70.43497543 -19.30396179 71.15974579 -19.31088257 71.90647888 C-19.32971693 74.27756811 -19.33377929 76.6483721 -19.3359375 79.01953125 C-19.3423755 80.68568533 -19.34910458 82.35183832 -19.35610962 84.01799011 C-19.36804598 87.50201027 -19.37179421 90.98593156 -19.37060547 94.4699707 C-19.37040248 98.90809284 -19.39770036 103.34557326 -19.43214989 107.78354359 C-19.45451803 111.22306665 -19.45843999 114.66243767 -19.45738602 118.10202599 C-19.45972724 119.73690692 -19.46846624 121.371793 -19.48405075 123.00660133 C-19.58722873 134.94715616 -18.52499272 145.19470646 -11 155 C-10.34 155.969375 -9.68 156.93875 -9 157.9375 C-2.79892855 165.23627665 7.40823709 169.44316826 16.7265625 170.37109375 C28.73189585 170.57559342 38.98700969 168.52580165 48 160 C48.66 160 49.32 160 50 160 C50.26941406 159.42507813 50.53882813 158.85015625 50.81640625 158.2578125 C52.40831783 155.22109667 54.43208738 152.56008617 56.46484375 149.8046875 C62.05055639 139.59974685 61.55214962 128.69436728 61.6875 117.375 C61.71834879 115.50242929 61.74993221 113.62987055 61.78222656 111.75732422 C61.85877345 107.05977029 61.91561824 102.36218917 61.96746826 97.66430664 C62.00765032 94.37344868 62.06530486 91.08303162 62.12336731 87.79244995 C62.17064349 84.90674024 62.20279071 82.02104122 62.22915649 79.1350708 C62.24931884 77.19068897 62.28203301 75.24644982 62.31518555 73.30224609 C62.35055126 63.44388744 61.39259021 53.60402561 55.8125 45.1875 C55.28269531 44.35605469 54.75289062 43.52460937 54.20703125 42.66796875 C52.232901 40.00568564 52.232901 40.00568564 49.99560547 38.71508789 C47.41253463 36.97862983 45.77716725 35.57561593 44 33 C42.99690174 27.32412618 43.242958 21.79926516 43.5 16.0625 C43.54017335 14.50464866 43.57666741 12.94669784 43.609375 11.38867188 C43.69709224 7.58997348 43.83485602 3.79608842 44 0 C61.71941702 5.56853984 75.08239193 16.48435765 84.34765625 32.5859375 C89.12342562 42.45360281 92.14369861 52.66308519 92.16113281 63.6574707 C92.16609772 64.4127858 92.17106262 65.16810089 92.17617798 65.94630432 C92.19074996 68.43947273 92.19759722 70.93257728 92.203125 73.42578125 C92.20736607 74.71285508 92.20736607 74.71285508 92.21169281 76.0259304 C92.22667395 80.57661622 92.23590718 85.12727049 92.24023438 89.67797852 C92.24568341 94.33639719 92.26963822 98.9945183 92.29820633 103.65284443 C92.3170202 107.26926961 92.3220484 110.88562623 92.32357025 114.50209618 C92.32656085 116.21657099 92.3344646 117.93104567 92.34775543 119.64547157 C92.51699586 143.17727879 87.70494832 163.52082842 71.3125 181.25 C56.35525144 195.28725906 37.38218598 201.76920709 17.05859375 201.25 C-2.1698006 200.33632006 -19.80114189 191.38769224 -32.94140625 177.5 C-46.18095212 161.42161412 -50.34077508 144.01746083 -50.23046875 123.7109375 C-50.22927254 122.23898357 -50.22882472 120.76702886 -50.2290802 119.29507446 C-50.22752437 116.2205929 -50.21931042 113.14622923 -50.20581055 110.07177734 C-50.18891289 106.17924487 -50.18499442 102.28684244 -50.18575573 98.39427757 C-50.18548029 95.35518203 -50.17993874 92.31611353 -50.17275429 89.27702713 C-50.16962545 87.8444705 -50.16761418 86.41191089 -50.16686058 84.97935104 C-50.13797128 58.75170984 -47.81224856 34.9492679 -28.52246094 15.42236328 C-21.2172515 8.59745145 -10.21608028 0 0 0 Z " fill="#A9143E" transform="translate(1639,482)"/>
<path d="M0 0 C0.74765625 0.65484375 1.4953125 1.3096875 2.265625 1.984375 C13.80651122 12.74016691 22.50637828 28.67097219 23.14717102 44.67584229 C23.16216781 46.12011425 23.17175923 47.56444876 23.17700195 49.00878906 C23.18685875 50.19787369 23.18685875 50.19787369 23.19691467 51.41098022 C23.21658505 54.02919631 23.22830306 56.64735488 23.23828125 59.265625 C23.24235678 60.16655632 23.2464323 61.06748764 23.25063133 61.99571991 C23.27147633 66.77448799 23.28577873 71.55322759 23.29516602 76.33203125 C23.3061617 81.2235986 23.34048601 86.1147024 23.38033772 91.00610733 C23.40673738 94.80357595 23.41487884 98.60093864 23.41844749 102.39849091 C23.42326204 104.19867799 23.4347255 105.99886205 23.45348549 107.79895782 C23.66221595 129.17480354 19.74008463 148.90243436 4.33203125 164.73046875 C3.56246094 165.47941406 2.79289062 166.22835937 2 167 C1.24074219 167.77988281 0.48148438 168.55976563 -0.30078125 169.36328125 C-7.69519008 176.56405581 -16.73884304 182.13532526 -27 184 C-27.10513382 179.46351414 -27.14313784 174.93292213 -27.12207031 170.39526367 C-27.12400336 168.8560743 -27.14348924 167.31679387 -27.18164062 165.77807617 C-27.48080644 152.97627227 -27.48080644 152.97627227 -23.80151367 148.06591797 C-21.11328125 145.68359375 -21.11328125 145.68359375 -18.43481445 143.75952148 C-12.33078538 139.34843781 -9.87392596 132.04547082 -8 125 C-7.55132415 122.08037385 -7.41373418 119.19679143 -7.33203125 116.24609375 C-7.29962845 115.40155136 -7.26722565 114.55700897 -7.23384094 113.68687439 C-6.84403122 102.4136778 -6.74069166 91.13136351 -6.70483398 79.85229492 C-6.69322042 77.31317616 -6.67262449 74.77408352 -6.64331055 72.23510742 C-6.60045752 68.5016275 -6.58445501 64.76885199 -6.57421875 61.03515625 C-6.54795662 59.35970482 -6.54795662 59.35970482 -6.52116394 57.65040588 C-6.55456213 45.37085205 -9.73401961 34.27880802 -18 25 C-26.87814199 16.41889622 -37.65356186 12.54931341 -49.90625 12.73046875 C-61.22867686 13.7168923 -71.40110626 18.52627911 -78.875 27.16796875 C-85.41336562 36.40341019 -88.08985606 46.07369854 -88.17700195 57.29956055 C-88.18357315 58.00453171 -88.19014435 58.70950287 -88.19691467 59.43583679 C-88.2165115 61.75279881 -88.22828045 64.0696964 -88.23828125 66.38671875 C-88.24235678 67.18389627 -88.2464323 67.9810738 -88.25063133 68.80240822 C-88.27143543 73.02313598 -88.28576076 77.24383179 -88.29516602 81.46459961 C-88.306211 85.79737317 -88.34060484 90.12963048 -88.38033772 94.4622221 C-88.40662901 97.81766131 -88.41486892 101.17297983 -88.41844749 104.52851295 C-88.42328218 106.1243316 -88.43480582 107.72014601 -88.45348549 109.31586266 C-88.59637033 122.33192872 -86.79828505 133.79398934 -78 144 C-77.02546875 144.61597046 -77.02546875 144.61597046 -76.03125 145.24438477 C-73.45316086 146.99253718 -71.7911566 148.43247002 -70 151 C-68.99803305 156.51081822 -69.2421599 161.86414025 -69.5 167.4375 C-69.54017582 168.94717127 -69.57666945 170.45694529 -69.609375 171.96679688 C-69.69705951 175.64668362 -69.83482722 179.32268218 -70 183 C-83.79944848 180.86244069 -95.10637142 171.39432967 -104 161 C-116.87554743 143.13662789 -119.36395507 125.51339178 -119.1875 104.1875 C-119.17789113 102.38680102 -119.16845406 100.58610112 -119.15917969 98.78540039 C-119.13026246 94.12114403 -119.08307444 89.45725011 -119.02996826 84.79321289 C-119.00045597 82.04249867 -118.97813006 79.29180953 -118.95751953 76.54101562 C-118.92244148 72.16903708 -118.86455061 67.79789182 -118.78945923 63.42642212 C-118.76360984 61.79595166 -118.74351767 60.16537741 -118.72982788 58.53475952 C-118.52845996 37.17277014 -113.29754182 18.12357544 -97.859375 2.65625 C-70.52668927 -22.73476953 -28.3673626 -25.38132443 0 0 Z " fill="#A9143E" transform="translate(1710,225)"/>
<path d="M0 0 C8.3366959 8.27112735 15.4094639 17.44479905 22.39233398 26.85791016 C26.35809694 32.1890603 30.46568408 37.38914032 34.63574219 42.5612793 C38.6200468 47.5076955 42.54619577 52.48886237 46.32168579 57.59713745 C47.99815667 59.8051317 49.6171346 61.59735378 51.62924194 63.54496765 C60.14210433 72.38708997 60.22493738 80.95852355 60.13296509 92.85395813 C60.08191525 95.30500533 60.02975557 97.75602963 59.9765625 100.20703125 C59.9578845 102.74433084 59.94366254 105.28166678 59.9336853 107.8190155 C59.89958226 113.7834721 59.821016 119.74626012 59.72019041 125.70986336 C59.60779283 132.50783513 59.55327993 139.30590375 59.50323606 146.10457575 C59.39915677 160.07074508 59.22366025 174.03526964 59 188 C56.55128617 185.59233584 54.44578359 183.40511226 52.6953125 180.4453125 C52.28418213 179.75961182 51.87305176 179.07391113 51.44946289 178.36743164 C51.01239014 177.6274292 50.57531738 176.88742676 50.125 176.125 C45.86866905 169.03936237 41.51401342 162.02721141 37.0625 155.0625 C36.46832275 154.13179687 35.87414551 153.20109375 35.26196289 152.2421875 C34.07460575 150.38250655 32.88702744 148.52296679 31.69921875 146.66357422 C24.38067898 135.19155283 17.15277041 123.66214713 9.9375 112.125 C9.29369385 111.09584473 8.6498877 110.06668945 7.98657227 109.00634766 C7.38127686 108.03745605 6.77598145 107.06856445 6.15234375 106.0703125 C5.61601318 105.21195801 5.07968262 104.35360352 4.52709961 103.46923828 C4.02315674 102.65438965 3.51921387 101.83954102 3 101 C2.48052795 100.31753708 1.96105591 99.63507416 1.42584229 98.93193054 C-0.58823468 94.79042496 -0.39632072 91.16641104 -0.34057617 86.61987305 C-0.34101425 85.68280014 -0.34145233 84.74572723 -0.34190369 83.78025818 C-0.33981778 80.69053128 -0.31649577 77.60135057 -0.29296875 74.51171875 C-0.2873721 72.36652422 -0.28310233 70.22132584 -0.28010559 68.0761261 C-0.26866231 62.4355507 -0.23919936 56.79520779 -0.20599365 51.15472412 C-0.17528176 45.3968012 -0.16159785 39.63884063 -0.14648438 33.88085938 C-0.11432935 22.58713755 -0.06313906 11.29358812 0 0 Z " fill="#A9143E" transform="translate(289,611)"/>
<path d="M0 0 C3.94382468 4.49500982 5.24701841 7.83497721 5.25390625 13.859375 C5.25664551 14.99866455 5.25938477 16.1379541 5.26220703 17.31176758 C5.24221736 22.00843263 5.20934153 26.70492531 5.16116333 31.40138245 C5.11604299 36.36150265 5.14845126 41.31655351 5.21633911 46.27635193 C5.25590971 49.87254838 5.25235313 53.4680016 5.2411499 57.06436157 C5.24442377 58.82471393 5.26490264 60.58512531 5.30328369 62.34506226 C5.59000094 76.33291041 5.59000094 76.33291041 1.95996094 81.46630859 C-0.54640076 83.75130415 -3.01658196 85.60076429 -5.87890625 87.41015625 C-6.5632373 87.99837158 -7.24756836 88.58658691 -7.95263672 89.19262695 C-9.87890625 90.41015625 -9.87890625 90.41015625 -11.64466858 90.27099609 C-17.12273475 88.16032645 -21.81634698 83.37925563 -24.87890625 78.41015625 C-26.35628431 73.00343374 -26.2693528 67.84648563 -26.09375 62.3046875 C-26.08335576 60.77017978 -26.07729845 59.23563724 -26.07533264 57.70109558 C-26.06005706 54.5034368 -26.0089522 51.30922057 -25.9284668 48.11254883 C-25.8263669 44.03375495 -25.78999048 39.95782773 -25.77736568 35.87787342 C-25.76457244 32.7161615 -25.72957695 29.55502702 -25.68673897 26.39359093 C-25.6666043 24.8902723 -25.65029779 23.38689695 -25.63804436 21.88349342 C-25.55085522 13.91065808 -25.43873585 7.21471106 -20.87890625 0.41015625 C-14.83597442 -4.39319982 -6.14109844 -5.19631407 0 0 Z " fill="#A9143E" transform="translate(1671.87890625,349.58984375)"/>
<path d="M0 0 C3.66458551 1.7233088 6.2627463 3.87358211 9.25 6.625 C10.14203125 7.44226563 11.0340625 8.25953125 11.953125 9.1015625 C12.96632813 10.04128906 12.96632813 10.04128906 14 11 C18.29611673 9.61611815 20.62384518 7.65191432 23.6875 4.375 C25.08880067 2.88184937 26.51897119 1.41410609 28 0 C28.66 0 29.32 0 30 0 C30.18911558 45.97254155 30.18911558 45.97254155 29.6875 60.0625 C29.66502197 60.937854 29.64254395 61.81320801 29.61938477 62.71508789 C29.41363938 67.2680793 28.81523602 70.36677773 26 74 C22.27280469 77.35447578 19.74877068 78.86801731 14.6875 79.25 C9.33569763 78.88716594 6.28050637 77.41893949 2.6875 73.4375 C-0.061976 69.46603466 -0.12232915 67.281031 -0.11352539 62.43896484 C-0.11367142 61.76567642 -0.11381744 61.092388 -0.1139679 60.3986969 C-0.11327027 58.16941119 -0.10548489 55.94020865 -0.09765625 53.7109375 C-0.09579154 52.16679937 -0.09436789 50.62266066 -0.09336853 49.07852173 C-0.08954754 45.01129528 -0.07972082 40.94410445 -0.06866455 36.87689209 C-0.05844144 32.7278288 -0.05386898 28.57875975 -0.04882812 24.4296875 C-0.03809819 16.28644197 -0.02102677 8.14322542 0 0 Z " fill="#A9143E" transform="translate(1646,465)"/>
<path d="M0 0 C1.9375 0.1875 1.9375 0.1875 4 1 C5.12890625 3.05078125 5.12890625 3.05078125 6 5 C3.09463062 7.18215205 0.17399204 9.34288318 -2.75 11.5 C-3.575 12.12003906 -4.4 12.74007813 -5.25 13.37890625 C-6.04921875 13.96542969 -6.8484375 14.55195313 -7.671875 15.15625 C-8.4050293 15.70087891 -9.13818359 16.24550781 -9.89355469 16.80664062 C-12 18 -12 18 -16 18 C-16.66 16.35 -17.32 14.7 -18 13 C-17.49025635 12.64172119 -16.9805127 12.28344238 -16.45532227 11.91430664 C-14.15699741 10.29805514 -11.85973648 8.68029803 -9.5625 7.0625 C-8.35883789 6.21655273 -8.35883789 6.21655273 -7.13085938 5.35351562 C-6.36708984 4.81533203 -5.60332031 4.27714844 -4.81640625 3.72265625 C-3.75595093 2.97640991 -3.75595093 2.97640991 -2.67407227 2.21508789 C-1.05303063 1.10532955 -1.05303063 1.10532955 0 0 Z " fill="#A9143E" transform="translate(1721,418)"/>
<path d="M0 0 C3 1 3 1 4.1875 3.0625 C4.455625 3.701875 4.72375 4.34125 5 5 C2.96022417 6.58581978 0.91826692 8.16868908 -1.125 9.75 C-1.69476562 10.1934375 -2.26453125 10.636875 -2.8515625 11.09375 C-6.47435632 13.89318159 -10.16187146 16.50346654 -14 19 C-15.9375 18.1875 -15.9375 18.1875 -18 17 C-18.33 16.01 -18.66 15.02 -19 14 C-16.96022417 12.41418022 -14.91826692 10.83131092 -12.875 9.25 C-12.30523438 8.8065625 -11.73546875 8.363125 -11.1484375 7.90625 C-9.44336369 6.58869297 -7.72633595 5.28955216 -6 4 C-5.45118164 3.58556641 -4.90236328 3.17113281 -4.33691406 2.74414062 C-2.7578125 1.609375 -2.7578125 1.609375 0 0 Z " fill="#A9143E" transform="translate(1611,456)"/>
<path d="M0 0 C3.22987146 0.35868859 5.29914835 1.72509405 7.85546875 3.65234375 C8.55994141 4.18150391 9.26441406 4.71066406 9.99023438 5.25585938 C10.71533203 5.81080078 11.44042969 6.36574219 12.1875 6.9375 C12.92419922 7.48857422 13.66089844 8.03964844 14.41992188 8.60742188 C19.8650421 12.7300842 19.8650421 12.7300842 21 15 C20.01 16.32 19.02 17.64 18 19 C13.18663445 17.43841194 9.66923933 14.71485673 5.75 11.625 C5.11320312 11.14289063 4.47640625 10.66078125 3.8203125 10.1640625 C3.21445313 9.6896875 2.60859375 9.2153125 1.984375 8.7265625 C1.43491211 8.29939941 0.88544922 7.87223633 0.31933594 7.43212891 C-1.32164628 5.65085547 -1.76838938 4.40191015 -2 2 C-1.34 1.34 -0.68 0.68 0 0 Z " fill="#A9143E" transform="translate(1595,417)"/>
<path d="M0 0 C4.95161958 0.95440472 8.28504895 3.84579193 12.25 6.8125 C12.99507812 7.34681641 13.74015625 7.88113281 14.5078125 8.43164062 C15.21164062 8.95564453 15.91546875 9.47964844 16.640625 10.01953125 C17.28547852 10.49495361 17.93033203 10.97037598 18.59472656 11.46020508 C20 13 20 13 20 17 C19.67 17.66 19.34 18.32 19 19 C14.04838042 18.04559528 10.71495105 15.15420807 6.75 12.1875 C6.00492188 11.65318359 5.25984375 11.11886719 4.4921875 10.56835938 C3.78835938 10.04435547 3.08453125 9.52035156 2.359375 8.98046875 C1.39209473 8.26733521 1.39209473 8.26733521 0.40527344 7.53979492 C-1 6 -1 6 -1 2 C-0.67 1.34 -0.34 0.68 0 0 Z " fill="#A9143E" transform="translate(1705,457)"/>
<path d="M0 0 C8.25 0 16.5 0 25 0 C25 1.98 25 3.96 25 6 C16.75 6 8.5 6 0 6 C0 4.02 0 2.04 0 0 Z " fill="#A9143E" transform="translate(1711,444)"/>
<path d="M0 0 C8.25 0 16.5 0 25 0 C25 1.98 25 3.96 25 6 C16.75 6 8.5 6 0 6 C0 4.02 0 2.04 0 0 Z " fill="#A9143E" transform="translate(1583,443)"/>
<path d="M0 0 C2.26653372 2.48362845 3.94879097 5.41689628 5.75 8.25 C6.52923828 9.41595703 6.52923828 9.41595703 7.32421875 10.60546875 C7.81019531 11.35957031 8.29617187 12.11367188 8.796875 12.890625 C9.24385742 13.58188477 9.69083984 14.27314453 10.15136719 14.98535156 C11.18029149 17.42801075 10.89486556 18.55385142 10 21 C8.68 21.33 7.36 21.66 6 22 C4.36919073 19.60794581 2.74527814 17.21167218 1.125 14.8125 C0.66480469 14.13896484 0.20460938 13.46542969 -0.26953125 12.77148438 C-2.62009818 9.27970017 -4.64144035 6.02102425 -6 2 C-3 0 -3 0 0 0 Z " fill="#00308A" transform="translate(3720,463)"/>
<path d="M0 0 C7.60837466 2.07042054 14.7728592 4.85830477 22 8 C21.67 9.65 21.34 11.3 21 13 C15.45044957 12.42389687 10.73970503 10.97901452 5.5625 8.9375 C4.83095703 8.65583984 4.09941406 8.37417969 3.34570312 8.08398438 C1.56126454 7.39586753 -0.21973905 6.69885394 -2 6 C-1.34 4.02 -0.68 2.04 0 0 Z " fill="#00308A" transform="translate(3727,453)"/>
<path d="M0 0 C0.33 1.98 0.66 3.96 1 6 C-1.8937133 6.84137043 -4.78959397 7.6733036 -7.6875 8.5 C-8.50412109 8.73847656 -9.32074219 8.97695313 -10.16210938 9.22265625 C-14.19171125 10.36464868 -17.76504847 11.34500623 -22 11 C-22.33 9.35 -22.66 7.7 -23 6 C-7.85714286 0 -7.85714286 0 0 0 Z " fill="#00308A" transform="translate(3747,434)"/>
<path d="M0 0 C2.0625 0.4375 2.0625 0.4375 4 1 C4.33 2.32 4.66 3.64 5 5 C-5.37357631 13.44646925 -5.37357631 13.44646925 -11 17 C-11.99 16.01 -12.98 15.02 -14 14 C-12.44878481 9.9408321 -9.79818814 7.96336874 -6.4375 5.3125 C-5.44621094 4.52488281 -4.45492187 3.73726563 -3.43359375 2.92578125 C-2.22896484 1.97251953 -2.22896484 1.97251953 -1 1 C-0.67 0.67 -0.34 0.34 0 0 Z " fill="#00308A" transform="translate(3800,393)"/>
<path d="M0 0 C2.97 0.495 2.97 0.495 6 1 C5.35451147 3.75008135 4.70862234 6.50006756 4.0625 9.25 C3.88009766 10.02730469 3.69769531 10.80460937 3.50976562 11.60546875 C3.33251953 12.35957031 3.15527344 13.11367188 2.97265625 13.890625 C2.72914429 14.92751465 2.72914429 14.92751465 2.48071289 15.98535156 C2.0014338 17.99399101 1.50453398 19.99756942 1 22 C-0.98 21.67 -2.96 21.34 -5 21 C-4.35451147 18.24991865 -3.70862234 15.49993244 -3.0625 12.75 C-2.88009766 11.97269531 -2.69769531 11.19539063 -2.50976562 10.39453125 C-2.33251953 9.64042969 -2.15527344 8.88632812 -1.97265625 8.109375 C-1.72914429 7.07248535 -1.72914429 7.07248535 -1.48071289 6.01464844 C-1.0014338 4.00600899 -0.50453398 2.00243058 0 0 Z " fill="#00308A" transform="translate(3779,382)"/>
<path d="M0 0 C0 1.98 0 3.96 0 6 C-10.395 6.495 -10.395 6.495 -21 7 C-21 5.02 -21 3.04 -21 1 C-18.25008168 0.83188272 -15.50007888 0.6654519 -12.75 0.5 C-11.97269531 0.45230469 -11.19539063 0.40460938 -10.39453125 0.35546875 C-9.26337891 0.28779297 -9.26337891 0.28779297 -8.109375 0.21875 C-7.41811523 0.17685547 -6.72685547 0.13496094 -6.01464844 0.09179688 C-4.01161035 0.00052902 -2.0051163 0 0 0 Z " fill="#00308A" transform="translate(3811,415)"/>
<path d="M0 0 C2.475 0.99 2.475 0.99 5 2 C3.31029911 5.66398299 1.12699789 8.90832572 -1.125 12.25 C-1.84945312 13.32765625 -2.57390625 14.4053125 -3.3203125 15.515625 C-4.15175781 16.74539063 -4.15175781 16.74539063 -5 18 C-7.475 17.01 -7.475 17.01 -10 16 C-8.31029911 12.33601701 -6.12699789 9.09167428 -3.875 5.75 C-3.15054688 4.67234375 -2.42609375 3.5946875 -1.6796875 2.484375 C-0.84824219 1.25460937 -0.84824219 1.25460937 0 0 Z " fill="#00308A" transform="translate(3736,372)"/>
<path d="M0 0 C0 1.32 0 2.64 0 4 C-2.43572059 4.83887056 -4.87333217 5.67126529 -7.3125 6.5 C-8.34793945 6.85771484 -8.34793945 6.85771484 -9.40429688 7.22265625 C-12.38931489 8.23208263 -14.82658914 9 -18 9 C-18.33 7.35 -18.66 5.7 -19 4 C-16.58732675 3.132758 -14.17095531 2.28103064 -11.75 1.4375 C-11.06808594 1.19064453 -10.38617187 0.94378906 -9.68359375 0.68945312 C-3.41657839 -1.47053761 -3.41657839 -1.47053761 0 0 Z " fill="#00308A" transform="translate(3751,391)"/>
<path d="M0 0 C1.65 0 3.3 0 5 0 C5 6.27 5 12.54 5 19 C3.35 19 1.7 19 0 19 C0 12.73 0 6.46 0 0 Z " fill="#00308A" transform="translate(3715,369)"/>
</svg>
